<mxfile host="app.diagrams.net" modified="2024-05-27T14:15:40.969Z" agent="Mozilla/5.0 (Windows NT 10.0; Win64; x64) AppleWebKit/537.36 (KHTML, like Gecko) Chrome/125.0.0.0 Safari/537.36" etag="bxBtzJxJsUTUk0h1A1QX" version="24.4.9" type="device">
  <diagram name="Página-1" id="B3VhxemqVAbUDHybhL54">
    <mxGraphModel dx="2261" dy="1949" grid="1" gridSize="10" guides="1" tooltips="1" connect="1" arrows="1" fold="1" page="1" pageScale="1" pageWidth="827" pageHeight="1169" math="0" shadow="0">
      <root>
        <mxCell id="0" />
        <mxCell id="1" parent="0" />
        <mxCell id="Gw-JPoFHgQS4QI_gKFu8-1" value="Cliente" style="shape=umlActor;verticalLabelPosition=bottom;verticalAlign=top;html=1;outlineConnect=0;" vertex="1" parent="1">
          <mxGeometry x="-50" y="250" width="30" height="60" as="geometry" />
        </mxCell>
        <mxCell id="Gw-JPoFHgQS4QI_gKFu8-2" value="Selecionar local" style="ellipse;whiteSpace=wrap;html=1;" vertex="1" parent="1">
          <mxGeometry x="234" y="-50" width="120" height="80" as="geometry" />
        </mxCell>
        <mxCell id="Gw-JPoFHgQS4QI_gKFu8-3" value="Selecionar o tipo de pagamento" style="ellipse;whiteSpace=wrap;html=1;" vertex="1" parent="1">
          <mxGeometry x="430" y="20" width="120" height="80" as="geometry" />
        </mxCell>
        <mxCell id="Gw-JPoFHgQS4QI_gKFu8-4" value="Selecionar o tipo de passagem" style="ellipse;whiteSpace=wrap;html=1;" vertex="1" parent="1">
          <mxGeometry x="410" y="240" width="120" height="80" as="geometry" />
        </mxCell>
        <mxCell id="Gw-JPoFHgQS4QI_gKFu8-10" value="" style="endArrow=classic;html=1;rounded=0;entryX=0.2;entryY=0.963;entryDx=0;entryDy=0;entryPerimeter=0;" edge="1" parent="1" source="Gw-JPoFHgQS4QI_gKFu8-1" target="Gw-JPoFHgQS4QI_gKFu8-2">
          <mxGeometry width="50" height="50" relative="1" as="geometry">
            <mxPoint x="150" y="250.01999999999998" as="sourcePoint" />
            <mxPoint x="209.99" y="200" as="targetPoint" />
          </mxGeometry>
        </mxCell>
        <mxCell id="Gw-JPoFHgQS4QI_gKFu8-12" value="" style="endArrow=classic;html=1;rounded=0;entryX=0.05;entryY=0.775;entryDx=0;entryDy=0;entryPerimeter=0;" edge="1" parent="1" source="Gw-JPoFHgQS4QI_gKFu8-1" target="Gw-JPoFHgQS4QI_gKFu8-3">
          <mxGeometry width="50" height="50" relative="1" as="geometry">
            <mxPoint x="230" y="280" as="sourcePoint" />
            <mxPoint x="280" y="230" as="targetPoint" />
          </mxGeometry>
        </mxCell>
        <mxCell id="Gw-JPoFHgQS4QI_gKFu8-14" value="" style="endArrow=classic;html=1;rounded=0;entryX=0;entryY=0.375;entryDx=0;entryDy=0;entryPerimeter=0;" edge="1" parent="1" source="Gw-JPoFHgQS4QI_gKFu8-1" target="Gw-JPoFHgQS4QI_gKFu8-4">
          <mxGeometry width="50" height="50" relative="1" as="geometry">
            <mxPoint x="250" y="320" as="sourcePoint" />
            <mxPoint x="300" y="270" as="targetPoint" />
          </mxGeometry>
        </mxCell>
        <mxCell id="Gw-JPoFHgQS4QI_gKFu8-20" value="Pressionar o botão consultar" style="ellipse;whiteSpace=wrap;html=1;" vertex="1" parent="1">
          <mxGeometry x="294" y="380" width="120" height="80" as="geometry" />
        </mxCell>
        <mxCell id="Gw-JPoFHgQS4QI_gKFu8-21" value="Mostrar classes disponíveis" style="ellipse;whiteSpace=wrap;html=1;" vertex="1" parent="1">
          <mxGeometry x="400" y="560" width="120" height="80" as="geometry" />
        </mxCell>
        <mxCell id="Gw-JPoFHgQS4QI_gKFu8-22" value="Mostrar horários disponíveis" style="ellipse;whiteSpace=wrap;html=1;" vertex="1" parent="1">
          <mxGeometry x="520" y="450" width="120" height="80" as="geometry" />
        </mxCell>
        <mxCell id="Gw-JPoFHgQS4QI_gKFu8-23" value="" style="endArrow=classic;html=1;rounded=0;exitX=0.992;exitY=0.388;exitDx=0;exitDy=0;exitPerimeter=0;entryX=0.025;entryY=0.238;entryDx=0;entryDy=0;entryPerimeter=0;" edge="1" parent="1" source="Gw-JPoFHgQS4QI_gKFu8-20" target="Gw-JPoFHgQS4QI_gKFu8-22">
          <mxGeometry width="50" height="50" relative="1" as="geometry">
            <mxPoint x="390" y="430" as="sourcePoint" />
            <mxPoint x="440" y="380" as="targetPoint" />
          </mxGeometry>
        </mxCell>
        <mxCell id="Gw-JPoFHgQS4QI_gKFu8-24" value="" style="endArrow=classic;html=1;rounded=0;exitX=0.717;exitY=0.975;exitDx=0;exitDy=0;exitPerimeter=0;entryX=0.325;entryY=-0.025;entryDx=0;entryDy=0;entryPerimeter=0;" edge="1" parent="1" source="Gw-JPoFHgQS4QI_gKFu8-20" target="Gw-JPoFHgQS4QI_gKFu8-21">
          <mxGeometry width="50" height="50" relative="1" as="geometry">
            <mxPoint x="280" y="520" as="sourcePoint" />
            <mxPoint x="330" y="470" as="targetPoint" />
          </mxGeometry>
        </mxCell>
        <mxCell id="Gw-JPoFHgQS4QI_gKFu8-25" value="" style="endArrow=classic;html=1;rounded=0;entryX=0.25;entryY=0;entryDx=0;entryDy=0;entryPerimeter=0;" edge="1" parent="1" source="Gw-JPoFHgQS4QI_gKFu8-1" target="Gw-JPoFHgQS4QI_gKFu8-20">
          <mxGeometry width="50" height="50" relative="1" as="geometry">
            <mxPoint x="390" y="430" as="sourcePoint" />
            <mxPoint x="440" y="380" as="targetPoint" />
          </mxGeometry>
        </mxCell>
        <mxCell id="Gw-JPoFHgQS4QI_gKFu8-26" value="Passagem Ida" style="ellipse;whiteSpace=wrap;html=1;" vertex="1" parent="1">
          <mxGeometry x="630" y="120" width="120" height="80" as="geometry" />
        </mxCell>
        <mxCell id="Gw-JPoFHgQS4QI_gKFu8-27" value="Passagem Ida e Volta" style="ellipse;whiteSpace=wrap;html=1;" vertex="1" parent="1">
          <mxGeometry x="630" y="330" width="120" height="80" as="geometry" />
        </mxCell>
        <mxCell id="Gw-JPoFHgQS4QI_gKFu8-28" value="" style="endArrow=classic;html=1;rounded=0;exitX=0.983;exitY=0.725;exitDx=0;exitDy=0;exitPerimeter=0;entryX=0.025;entryY=0.375;entryDx=0;entryDy=0;entryPerimeter=0;" edge="1" parent="1" source="Gw-JPoFHgQS4QI_gKFu8-4" target="Gw-JPoFHgQS4QI_gKFu8-27">
          <mxGeometry width="50" height="50" relative="1" as="geometry">
            <mxPoint x="490" y="430" as="sourcePoint" />
            <mxPoint x="540" y="380" as="targetPoint" />
          </mxGeometry>
        </mxCell>
        <mxCell id="Gw-JPoFHgQS4QI_gKFu8-29" value="" style="endArrow=classic;html=1;rounded=0;exitX=0.925;exitY=0.213;exitDx=0;exitDy=0;exitPerimeter=0;entryX=0;entryY=0.613;entryDx=0;entryDy=0;entryPerimeter=0;" edge="1" parent="1" source="Gw-JPoFHgQS4QI_gKFu8-4" target="Gw-JPoFHgQS4QI_gKFu8-26">
          <mxGeometry width="50" height="50" relative="1" as="geometry">
            <mxPoint x="460" y="250" as="sourcePoint" />
            <mxPoint x="510" y="200" as="targetPoint" />
          </mxGeometry>
        </mxCell>
        <mxCell id="Gw-JPoFHgQS4QI_gKFu8-30" value="Selecionar a data de partida" style="ellipse;whiteSpace=wrap;html=1;" vertex="1" parent="1">
          <mxGeometry x="890" y="120" width="120" height="80" as="geometry" />
        </mxCell>
        <mxCell id="Gw-JPoFHgQS4QI_gKFu8-31" value="Selecionar as datas de partida e retorno" style="ellipse;whiteSpace=wrap;html=1;" vertex="1" parent="1">
          <mxGeometry x="890" y="330" width="120" height="80" as="geometry" />
        </mxCell>
        <mxCell id="Gw-JPoFHgQS4QI_gKFu8-32" value="" style="endArrow=classic;html=1;rounded=0;exitX=0.983;exitY=0.375;exitDx=0;exitDy=0;exitPerimeter=0;entryX=0;entryY=0.375;entryDx=0;entryDy=0;entryPerimeter=0;" edge="1" parent="1" source="Gw-JPoFHgQS4QI_gKFu8-26" target="Gw-JPoFHgQS4QI_gKFu8-30">
          <mxGeometry width="50" height="50" relative="1" as="geometry">
            <mxPoint x="690" y="240" as="sourcePoint" />
            <mxPoint x="740" y="190" as="targetPoint" />
          </mxGeometry>
        </mxCell>
        <mxCell id="Gw-JPoFHgQS4QI_gKFu8-33" value="" style="endArrow=classic;html=1;rounded=0;exitX=0.992;exitY=0.613;exitDx=0;exitDy=0;exitPerimeter=0;entryX=-0.025;entryY=0.613;entryDx=0;entryDy=0;entryPerimeter=0;" edge="1" parent="1" source="Gw-JPoFHgQS4QI_gKFu8-27" target="Gw-JPoFHgQS4QI_gKFu8-31">
          <mxGeometry width="50" height="50" relative="1" as="geometry">
            <mxPoint x="700" y="390" as="sourcePoint" />
            <mxPoint x="750" y="340" as="targetPoint" />
          </mxGeometry>
        </mxCell>
        <mxCell id="Gw-JPoFHgQS4QI_gKFu8-44" value="Local de Origem" style="ellipse;whiteSpace=wrap;html=1;" vertex="1" parent="1">
          <mxGeometry x="114" y="-260" width="120" height="80" as="geometry" />
        </mxCell>
        <mxCell id="Gw-JPoFHgQS4QI_gKFu8-45" value="Local de Destino" style="ellipse;whiteSpace=wrap;html=1;" vertex="1" parent="1">
          <mxGeometry x="320" y="-260" width="120" height="80" as="geometry" />
        </mxCell>
        <mxCell id="Gw-JPoFHgQS4QI_gKFu8-46" value="" style="endArrow=classic;html=1;rounded=0;exitX=0.267;exitY=-0.012;exitDx=0;exitDy=0;exitPerimeter=0;entryX=0.717;entryY=1.013;entryDx=0;entryDy=0;entryPerimeter=0;" edge="1" parent="1" source="Gw-JPoFHgQS4QI_gKFu8-2" target="Gw-JPoFHgQS4QI_gKFu8-44">
          <mxGeometry width="50" height="50" relative="1" as="geometry">
            <mxPoint x="160" y="-100" as="sourcePoint" />
            <mxPoint x="210" y="-150" as="targetPoint" />
          </mxGeometry>
        </mxCell>
        <mxCell id="Gw-JPoFHgQS4QI_gKFu8-47" value="" style="endArrow=classic;html=1;rounded=0;exitX=0.717;exitY=0;exitDx=0;exitDy=0;exitPerimeter=0;entryX=0.317;entryY=1.013;entryDx=0;entryDy=0;entryPerimeter=0;" edge="1" parent="1" source="Gw-JPoFHgQS4QI_gKFu8-2" target="Gw-JPoFHgQS4QI_gKFu8-45">
          <mxGeometry width="50" height="50" relative="1" as="geometry">
            <mxPoint x="340" y="-90" as="sourcePoint" />
            <mxPoint x="390" y="-140" as="targetPoint" />
          </mxGeometry>
        </mxCell>
      </root>
    </mxGraphModel>
  </diagram>
</mxfile>
